<?xml version="1.0" standalone="no"?>
<!DOCTYPE svg PUBLIC "-//W3C//DTD SVG 20010904//EN"
 "http://www.w3.org/TR/2001/REC-SVG-20010904/DTD/svg10.dtd">
<svg version="1.0" xmlns="http://www.w3.org/2000/svg"
 width="350.000000pt" height="350.000000pt" viewBox="0 0 350.000000 350.000000"
 preserveAspectRatio="xMidYMid meet">
<metadata>
Created by potrace 1.11, written by Peter Selinger 2001-2013
</metadata>
<g transform="translate(0.000000,350.000000) scale(0.100000,-0.100000)"
fill="#000000" stroke="none">
<path d="M1656 3298 l-78 -81 86 -86 86 -86 86 86 86 86 -82 82 c-46 44 -88
81 -94 80 -6 -1 -46 -37 -90 -81z"/>
<path d="M1557 3066 c-20 -18 -37 -37 -37 -42 0 -5 34 -43 75 -84 l76 -76
-359 -354 c-197 -195 -361 -361 -366 -368 -5 -8 109 -128 358 -375 l366 -362
-290 -290 -290 -290 -172 172 -173 173 199 196 198 196 -233 234 c-129 129
-236 234 -239 234 -3 0 -113 -105 -243 -234 l-238 -235 446 -443 c246 -244
448 -445 451 -447 2 -3 151 141 330 320 179 178 327 326 330 329 3 2 153 -144
334 -325 181 -181 331 -327 334 -325 2 3 205 204 451 448 l446 443 -238 235
c-130 129 -239 234 -242 234 -4 0 -111 -105 -240 -234 l-234 -234 197 -195
c131 -130 194 -199 189 -208 -3 -8 -80 -86 -170 -174 l-163 -160 -290 290
-290 290 366 362 c229 228 362 367 358 375 -4 6 -169 171 -366 367 l-358 355
75 76 c41 41 75 80 75 85 0 5 -17 24 -37 42 l-38 32 -77 -77 -78 -77 -78 78
-78 77 -37 -34z m521 -606 c243 -239 322 -323 315 -334 -12 -21 -634 -631
-643 -631 -11 0 -650 628 -650 638 0 9 641 646 650 646 3 0 150 -143 328 -319z
m-1253 -1054 l-159 -155 -153 152 c-84 83 -153 155 -153 159 0 4 69 77 153
161 l152 153 160 -157 159 -158 -159 -155z m2164 313 c83 -83 151 -154 151
-158 0 -4 -69 -75 -153 -158 l-154 -152 -159 155 -159 154 155 155 c85 85 158
155 162 155 4 0 75 -68 157 -151z"/>
<path d="M1510 855 l-235 -235 238 -238 237 -237 237 237 238 238 -235 235
c-129 129 -237 235 -240 235 -3 0 -111 -106 -240 -235z m400 -80 l155 -155
-158 -158 -157 -157 -157 157 -158 158 155 155 c85 85 157 155 160 155 3 0 75
-70 160 -155z"/>
</g>
</svg>
